<?xml version="1.0" encoding="utf-8"?>
<!-- Generator: Adobe Illustrator 19.1.0, SVG Export Plug-In . SVG Version: 6.00 Build 0)  -->
<svg version="1.1" id="Layer_1" xmlns="http://www.w3.org/2000/svg" xmlns:xlink="http://www.w3.org/1999/xlink" x="0px" y="0px"
	 viewBox="14 157 640 480" style="enable-background:new 14 157 640 480;" xml:space="preserve">
<style type="text/css">
	.st0{fill:#0077B5;}
</style>
<path class="st0" d="M655.8,105H38c-42.5,0-77.2,27.3-77.2,60.7v485.6c0,33.4,34.7,60.7,77.2,60.7h617.8c42.5,0,77.2-27.3,77.2-60.7
	V165.7C733,132.3,698.3,105,655.8,105z M245.4,558.6h-72v-216h72V558.6z M209.4,301.8c-24,0-43.2-19.2-43.2-43.2
	s19.2-43.2,43.2-43.2s43.2,19.2,43.2,43.2S233.4,301.8,209.4,301.8z M509.4,558.6h-72V431.4c0-19.2-16.8-36-36-36s-36,16.8-36,36
	v127.2h-72v-216h72v28.8c12-19.2,38.4-33.6,60-33.6c45.6,0,84,38.4,84,84V558.6z"/>
</svg>
